<svg xmlns="http://www.w3.org/2000/svg" version="1.1" width="8" height="8" data-icon="basket" viewBox="0 0 8 8">
  <path d="M3.844 0a.5.5 0 0 0-.063.063.5.5 0 0 0-.094.031.5.5 0 0 0-.063.094.5.5 0 0 0-.094.125l-2.25 2.688h-1.281v1h1v3.656c0 .18.164.344.344.344h5.313c.18 0 .344-.164.344-.344v-3.656h1v-1h-1.281l-2.281-2.719a.5.5 0 0 0 0-.031l-.063-.063a.5.5 0 0 0-.031-.063.5.5 0 0 0-.031 0 .5.5 0 0 0 0-.031.5.5 0 0 0-.031 0 .5.5 0 0 0-.063-.063.5.5 0 0 0-.031 0 .5.5 0 0 0-.031 0 .5.5 0 0 0-.031 0 .5.5 0 0 0 0-.031.5.5 0 0 0-.031 0 .5.5 0 0 0-.031 0 .5.5 0 0 0-.063 0 .5.5 0 0 0-.031 0 .5.5 0 0 0-.063 0 .5.5 0 0 0-.063 0zm.156 1.25l1.438 1.75h-2.875l1.438-1.75zm-1.5 3.75c.28 0 .5.22.5.5v1c0 .28-.22.5-.5.5s-.5-.22-.5-.5v-1c0-.28.22-.5.5-.5zm3 0c.28 0 .5.22.5.5v1c0 .28-.22.5-.5.5s-.5-.22-.5-.5v-1c0-.28.22-.5.5-.5z"
  />
</svg>