<svg xmlns="http://www.w3.org/2000/svg" version="1.1" width="8" height="8" data-icon="globe" viewBox="0 0 8 8">
  <g>
    <path d="M4 0c-2.21 0-4 1.79-4 4s1.79 4 4 4 4-1.79 4-4-1.79-4-4-4zm0 1c.309 0 .594.068.875.156 0 .12-.088.285-.188.375l-.094.094c-.1.1-.089.188.031.188s.306.066.406.156l.094.094c.1.1.1.244 0 .344l-.063.094c-.1.1-.1.254 0 .344l.063.094c.1.1.1.244 0 .344l-.094.094-.344.375-.063.063c-.09.1-.188.298-.188.438v.375c-.01.14.067.315.188.375l.469.188c.12.06.317.115.438.125h.438c.12 0 .316.098.406.188l.063.063.063.125c-.541.798-1.469 1.313-2.5 1.313-.354 0-.684-.074-1-.188v-.563c0-.14-.087-.338-.188-.438l-.125-.125-.344-.344-.156-.156c-.1-.1-.298-.188-.438-.188h-.5l-.063-.031c-.101-.289-.181-.586-.188-.906.036-.045.096-.063.156-.063.12 0 .285.088.375.188l.094.094c.09.11.188.067.188-.063s-.097-.285-.188-.375l-.094-.094c-.1-.1-.166-.297-.156-.438v-.375c0-.14.12-.216.25-.156l.156.094c.12.06.196.015.156-.125l-.063-.25c-.03-.13.048-.25.188-.25h.281c.14 0 .316-.056.406-.156l.094-.125c.09-.1.058-.242-.063-.313l-.344-.156-.031-.031c.462-.292 1.009-.469 1.594-.469zm2.344 1.125c.149.185.242.408.344.625-.04.04-.063.096-.063.156 0 .12-.13.219-.25.219s-.188-.099-.188-.219-.11-.219-.25-.219h-.375c-.14 0-.194-.066-.094-.156l.094-.094c.1-.09.286-.188.406-.188.108 0 .279-.039.375-.125z"
    />
  </g>
</svg>