<svg xmlns="http://www.w3.org/2000/svg" version="1.1" width="8" height="8" data-icon="infinity" data-container-transform="translate(0 2)" viewBox="0 0 8 8">
  <path d="M2 2c-.625 0-1.158.241-1.5.625-.342.384-.5.889-.5 1.375s.158.991.5 1.375c.342.384.875.625 1.5.625.539 0 1.001-.272 1.375-.594.235-.202.42-.452.625-.688.203.232.392.489.625.688.377.322.833.594 1.375.594.625 0 1.158-.241 1.5-.625.342-.384.5-.889.5-1.375s-.158-.991-.5-1.375c-.342-.384-.875-.625-1.5-.625-.542 0-.998.272-1.375.594-.233.199-.422.455-.625.688-.205-.236-.39-.486-.625-.688-.374-.322-.836-.594-1.375-.594zm0 1c.201 0 .439.103.719.344.19.163.387.417.594.656-.207.239-.404.493-.594.656-.28.241-.518.344-.719.344-.375 0-.592-.134-.75-.313-.158-.178-.25-.424-.25-.688 0-.264.092-.509.25-.688.158-.178.375-.313.75-.313zm4 0c.375 0 .592.134.75.313.158.178.25.424.25.688 0 .264-.092.509-.25.688-.158.178-.375.313-.75.313-.208 0-.437-.103-.719-.344-.193-.164-.416-.415-.625-.656.209-.241.432-.492.625-.656.282-.241.51-.344.719-.344z"
  />
</svg>