<svg xmlns="http://www.w3.org/2000/svg" version="1.1" width="8" height="8" data-icon="link-intact" viewBox="0 0 8 8">
  <path d="M5.875.031c-.184.01-.354.03-.531.094-.27.095-.531.25-.75.469l-.438.438a.5.5 0 1 0 .688.688l.438-.438c.101-.101.245-.173.375-.219.352-.126.78-.064 1.063.219.395.389.4 1.037 0 1.438l-1.688 1.656c-.211.211-.492.294-.75.281v.031l-.188-.031a.5.5 0 1 0-.188.969l.313.031a.5.5 0 0 0 .031 0c.542.027 1.091-.154 1.5-.563l1.656-1.688c.78-.78.785-2.041 0-2.813-.279-.279-.606-.452-.969-.531-.181-.039-.379-.041-.563-.031zm-2.313 2.281c-.184.011-.358.036-.531.094-.168.059-.239.144-.344.219l-.344.25c-.216.178-.391.328-.5.438l-1.25 1.281c-.78.78-.785 2.041 0 2.813.557.557 1.355.722 2.063.469.27-.095.531-.25.75-.469l.438-.438a.5.5 0 1 0-.688-.688l-.438.438c-.101.101-.245.173-.375.219-.352.126-.78.064-1.063-.219-.395-.389-.4-1.037 0-1.438l1.25-1.25c.051-.051.275-.247.469-.406l.25-.188.094-.063c.193-.064.387-.102.563-.063a.5.5 0 1 0 .219-.969c-.182-.04-.378-.043-.563-.031z"
  />
</svg>