<svg xmlns="http://www.w3.org/2000/svg" version="1.1" width="8" height="8" data-icon="link" viewBox="0 0 8 8">
  <g>
    <path d="M5.875.031c-.184.01-.354.03-.531.094-.287.096-.538.257-.75.469a.5.5 0 1 0 .688.688c.108-.108.242-.174.375-.219.352-.126.78-.064 1.063.219.4.4.395 1.049 0 1.438l-1.438 1.438c-.4.4-1.049.395-1.438 0a.5.5 0 1 0-.688.688c.771.785 2.033.78 2.813 0l1.438-1.438c.785-.771.78-2.033 0-2.813-.279-.279-.606-.452-.969-.531-.181-.039-.379-.041-.563-.031zm-2.563 1.531c-.184.017-.354.062-.531.125-.168.059-.239.112-.344.188l-.344.25c-.216.178-.391.359-.5.469l-1 1c-.785.771-.78 2.033 0 2.813.557.557 1.355.722 2.063.469.287-.096.538-.257.75-.469a.5.5 0 1 0-.688-.688c-.108.108-.242.174-.375.219-.352.126-.78.064-1.063-.219-.4-.4-.395-1.049 0-1.438l1-1 .469-.375.25-.219.094-.063c.352-.126.78-.064 1.063.219a.5.5 0 1 0 .688-.688c-.279-.279-.606-.484-.969-.563-.181-.039-.379-.049-.563-.031z"
    />
  </g>
</svg>