<svg xmlns="http://www.w3.org/2000/svg" version="1.1" width="8" height="8" data-icon="reload" viewBox="0 0 8 8">
  <path d="M4 0c-.549 0-1.083.107-1.563.313-.483.207-.892.497-1.25.844-.373.362-.672.808-.875 1.281-.206.48-.313 1.013-.313 1.563 0 .549.107 1.083.313 1.563.194.479.514.895.875 1.25.358.364.784.675 1.25.875.48.206 1.013.313 1.563.313.549 0 1.083-.107 1.563-.313.473-.192.898-.489 1.25-.844v-.031h.031c.358-.355.646-.79.844-1.25l-.938-.406c-.157.366-.358.71-.625.969-.262.271-.585.482-.938.625h-.031c-.36.154-.746.25-1.156.25-.411 0-.796-.096-1.156-.25-.366-.157-.71-.358-.969-.625-.271-.262-.482-.585-.625-.938v-.031c-.154-.36-.25-.746-.25-1.156 0-.411.096-.796.25-1.156.157-.366.358-.71.625-.969.282-.273.611-.472.969-.625.36-.154.746-.25 1.156-.25.411 0 .796.096 1.156.25.366.157.71.358.969.625l-1.125 1.125h3v-3l-1.156 1.188h-.031c-.359-.365-.784-.675-1.25-.875l-.094-.031c-.456-.182-.953-.281-1.469-.281z"
  />
</svg>