<?xml version="1.0" encoding="utf-8"?>
<!-- Generator: Adobe Illustrator 17.0.2, SVG Export Plug-In . SVG Version: 6.00 Build 0)  -->
<!DOCTYPE svg PUBLIC "-//W3C//DTD SVG 1.1//EN" "http://www.w3.org/Graphics/SVG/1.1/DTD/svg11.dtd">
<svg version="1.1" id="aperture_xs_1_" xmlns="http://www.w3.org/2000/svg" xmlns:xlink="http://www.w3.org/1999/xlink" x="0px"
	 y="0px" width="8px" height="7.96px" viewBox="0 0 8 7.96" enable-background="new 0 0 8 7.96" xml:space="preserve">
<path d="M1.24,1.11C0.48,1.84,0,2.86,0,4c0,0.25,0.03,0.5,0.07,0.73L3.15,2.5L1.24,1.11z"/>
<path d="M2.16,4.45L0.41,5.73c0.55,1.13,1.6,1.97,2.88,2.2L2.16,4.45z"/>
<path d="M3.71,6l0.64,1.96C5.68,7.85,6.81,7.09,7.45,6H3.71z"/>
<path d="M5.66,5h2.2C7.94,4.68,8,4.35,8,4c0-1.07-0.43-2.04-1.12-2.76L5.66,5z"/>
<path d="M5.31,2.84l0.73-2.26C5.45,0.22,4.75,0,4,0C3.31,0,2.67,0.19,2.1,0.5L5.31,2.84z"/>
</svg>
