<?xml version="1.0" encoding="utf-8"?>
<!-- Generator: Adobe Illustrator 17.0.2, SVG Export Plug-In . SVG Version: 6.00 Build 0)  -->
<!DOCTYPE svg PUBLIC "-//W3C//DTD SVG 1.1//EN" "http://www.w3.org/Graphics/SVG/1.1/DTD/svg11.dtd">
<svg version="1.1" id="beaker_xs_1_" xmlns="http://www.w3.org/2000/svg" xmlns:xlink="http://www.w3.org/1999/xlink" x="0px"
	 y="0px" width="8px" height="8px" viewBox="0 0 8 8" enable-background="new 0 0 8 8" xml:space="preserve">
<path fill="none" stroke="#000000" stroke-miterlimit="10" d="M1.43,7.5c-0.26,0-0.49-0.1-0.66-0.27S0.5,6.82,0.5,6.57
	s0.15-0.61,0.27-0.82C1.28,4.89,2.5,2.5,2.5,2.5v-2h3v2c0,0,1.22,2.39,1.73,3.25C7.35,5.96,7.5,6.31,7.5,6.57S7.4,7.06,7.23,7.23
	S6.82,7.5,6.57,7.5H1.43z"/>
<line fill="none" stroke="#000000" stroke-linecap="round" stroke-miterlimit="10" x1="1.5" y1="0.5" x2="6.5" y2="0.5"/>
<path d="M1.43,7.5c-0.25,0-0.48-0.1-0.66-0.27C0.6,7.05,0.5,6.82,0.5,6.57s0.1-0.48,0.27-0.66L1.5,5h5l0.73,0.91
	C7.4,6.08,7.5,6.32,7.5,6.57c0,0.25-0.1,0.48-0.27,0.66C7.05,7.4,6.82,7.5,6.57,7.5H1.43z"/>
</svg>
