<?xml version="1.0" encoding="utf-8"?>
<!-- Generator: Adobe Illustrator 17.0.2, SVG Export Plug-In . SVG Version: 6.00 Build 0)  -->
<!DOCTYPE svg PUBLIC "-//W3C//DTD SVG 1.1//EN" "http://www.w3.org/Graphics/SVG/1.1/DTD/svg11.dtd">
<svg version="1.1" id="bold_xs_1_" xmlns="http://www.w3.org/2000/svg" xmlns:xlink="http://www.w3.org/1999/xlink" x="0px" y="0px"
	 width="8px" height="8px" viewBox="0 0 8 8" enable-background="new 0 0 8 8" xml:space="preserve">
<path d="M6.56,3.24C6.83,2.9,7,2.47,7,2c0-1.1-0.9-2-2-2H0v1c0.55,0,1,0.45,1,1v4c0,0.55-0.45,1-1,1v1h5.5C6.88,8,8,6.88,8,5.5
	C8,4.5,7.41,3.64,6.56,3.24z M3,1h1c0.55,0,1,0.45,1,1c0,0.55-0.45,1-1,1H3V1z M4.5,7H3V4h1.5C5.33,4,6,4.67,6,5.5S5.33,7,4.5,7z"/>
</svg>
