<?xml version="1.0" encoding="utf-8"?>
<!-- Generator: Adobe Illustrator 17.0.2, SVG Export Plug-In . SVG Version: 6.00 Build 0)  -->
<!DOCTYPE svg PUBLIC "-//W3C//DTD SVG 1.1//EN" "http://www.w3.org/Graphics/SVG/1.1/DTD/svg11.dtd">
<svg version="1.1" id="book_xs_1_" xmlns="http://www.w3.org/2000/svg" xmlns:xlink="http://www.w3.org/1999/xlink" x="0px" y="0px"
	 width="7px" height="8px" viewBox="0 0 7 8" enable-background="new 0 0 7 8" xml:space="preserve">
<path d="M1.5,6H7V0.5C7,0.22,6.78,0,6.5,0H6v3L5,2L4,3V0H1C0.93,0,0.87,0.01,0.81,0.04C0.42,0.12,0.12,0.42,0.04,0.81
	C0.01,0.87,0,0.93,0,1v5.5C0,7.33,0.67,8,1.5,8H7V7H6.55H1.5C1.22,7,1,6.78,1,6.5S1.22,6,1.5,6z"/>
</svg>
