<?xml version="1.0" encoding="utf-8"?>
<!-- Generator: Adobe Illustrator 17.0.2, SVG Export Plug-In . SVG Version: 6.00 Build 0)  -->
<!DOCTYPE svg PUBLIC "-//W3C//DTD SVG 1.1//EN" "http://www.w3.org/Graphics/SVG/1.1/DTD/svg11.dtd">
<svg version="1.1" id="briefcase_xs_1_" xmlns="http://www.w3.org/2000/svg" xmlns:xlink="http://www.w3.org/1999/xlink" x="0px"
	 y="0px" width="8px" height="8px" viewBox="0 0 8 8" enable-background="new 0 0 8 8" xml:space="preserve">
<g>
	<path fill="none" stroke="#000000" stroke-miterlimit="10" d="M5.5,2.5V2c0-0.27,0-0.73,0-1l0,0c0-0.27-0.22-0.5-0.5-0.5H3
		C2.72,0.5,2.5,0.73,2.5,1l0,0c0,0.27,0,0.73,0,1v0.5"/>
</g>
<g>
	<defs>
		<path id="SVGID_1_" d="M0,4.5v-1V2h8v1.5v1C8,4.78,7.78,5,7.5,5h-7C0.22,5,0,4.78,0,4.5z M7.5,6h-7C0.32,6,0.16,5.96,0,5.91V8h8
			V5.91C7.84,5.96,7.68,6,7.5,6z"/>
	</defs>
	<clipPath id="SVGID_2_">
		<use xlink:href="#SVGID_1_"  overflow="visible"/>
	</clipPath>
	<path id="rc:sm_10_" clip-path="url(#SVGID_2_)" d="M0,2.1v5.8C0,7.96,0.04,8,0.1,8h7.8C7.96,8,8,7.96,8,7.9V2.1
		C8,2.04,7.96,2,7.9,2H0.1C0.04,2,0,2.04,0,2.1z"/>
</g>
</svg>
