<?xml version="1.0" encoding="utf-8"?>
<!-- Generator: Adobe Illustrator 17.0.2, SVG Export Plug-In . SVG Version: 6.00 Build 0)  -->
<!DOCTYPE svg PUBLIC "-//W3C//DTD SVG 1.1//EN" "http://www.w3.org/Graphics/SVG/1.1/DTD/svg11.dtd">
<svg version="1.1" id="browser_xs_1_" xmlns="http://www.w3.org/2000/svg" xmlns:xlink="http://www.w3.org/1999/xlink" x="0px"
	 y="0px" width="8px" height="8px" viewBox="0 0 8 8" enable-background="new 0 0 8 8" xml:space="preserve">
<path d="M0.5,0.5V3h7V0.5H0.5z M1.5,2C1.22,2,1,1.78,1,1.5C1,1.22,1.22,1,1.5,1S2,1.22,2,1.5C2,1.78,1.78,2,1.5,2z M6.5,2h-3
	C3.22,2,3,1.78,3,1.5S3.22,1,3.5,1h3C6.78,1,7,1.22,7,1.5S6.78,2,6.5,2z"/>
<rect x="0.5" y="0.5" fill="none" stroke="#000000" stroke-linejoin="round" stroke-miterlimit="10" width="7" height="7"/>
</svg>
