<?xml version="1.0" encoding="utf-8"?>
<!-- Generator: Adobe Illustrator 17.0.2, SVG Export Plug-In . SVG Version: 6.00 Build 0)  -->
<!DOCTYPE svg PUBLIC "-//W3C//DTD SVG 1.1//EN" "http://www.w3.org/Graphics/SVG/1.1/DTD/svg11.dtd">
<svg version="1.1" id="brush_xs_1_" xmlns="http://www.w3.org/2000/svg" xmlns:xlink="http://www.w3.org/1999/xlink" x="0px"
	 y="0px" width="8px" height="8px" viewBox="0 0 8 8" enable-background="new 0 0 8 8" xml:space="preserve">
<path d="M4,5.33C4,4.6,3.4,4,2.66,4C1.93,4,1.33,4.6,1.33,5.33l0,0C1.33,6.32,0.8,7.18,0,7.64l0,0C0.4,7.87,0.85,8,1.33,8
	C2.81,8,4,6.81,4,5.33L4,5.33z"/>
<g>
	<defs>
		<path id="SVGID_1_" d="M3,0v3.03C4.02,3.18,4.82,3.98,4.97,5H8V0H3z"/>
	</defs>
	<clipPath id="SVGID_2_">
		<use xlink:href="#SVGID_1_"  overflow="visible"/>
	</clipPath>
	<path id="rc:sm_2_" clip-path="url(#SVGID_2_)" d="M7.36,0.06L3.64,2.72c-0.04,0.03-0.1,0.1-0.13,0.15L3.04,3.8
		C3.02,3.85,3.03,3.92,3.07,3.96l0.97,0.97C4.08,4.97,4.15,4.98,4.2,4.96l0.93-0.47c0.05-0.02,0.12-0.08,0.15-0.13l2.66-3.73
		c0.03-0.04,0.03-0.11-0.01-0.15L7.52,0.07C7.48,0.03,7.41,0.03,7.36,0.06z"/>
</g>
</svg>
