<?xml version="1.0" encoding="utf-8"?>
<!-- Generator: Adobe Illustrator 17.0.2, SVG Export Plug-In . SVG Version: 6.00 Build 0)  -->
<!DOCTYPE svg PUBLIC "-//W3C//DTD SVG 1.1//EN" "http://www.w3.org/Graphics/SVG/1.1/DTD/svg11.dtd">
<svg version="1.1" id="calculator_xs_1_" xmlns="http://www.w3.org/2000/svg" xmlns:xlink="http://www.w3.org/1999/xlink" x="0px"
	 y="0px" width="7px" height="8px" viewBox="0 0 7 8" enable-background="new 0 0 7 8" xml:space="preserve">
<g>
	<defs>
		<path id="SVGID_1_" d="M0,0v8h7V0H0z M2,7H1V6h1V7z M2,5H1V4h1V5z M4,7H3V6h1V7z M4,5H3V4h1V5z M6,7H5V4h1V7z M6,3H1V1h5V3z"/>
	</defs>
	<clipPath id="SVGID_2_">
		<use xlink:href="#SVGID_1_"  overflow="visible"/>
	</clipPath>
	<path id="rc:sm_7_" clip-path="url(#SVGID_2_)" d="M6.9,8H0.1C0.04,8,0,7.96,0,7.9V0.1C0,0.04,0.04,0,0.1,0h6.8
		C6.96,0,7,0.04,7,0.1v7.8C7,7.96,6.96,8,6.9,8z"/>
</g>
</svg>
