<?xml version="1.0" encoding="utf-8"?>
<!-- Generator: Adobe Illustrator 17.0.2, SVG Export Plug-In . SVG Version: 6.00 Build 0)  -->
<!DOCTYPE svg PUBLIC "-//W3C//DTD SVG 1.1//EN" "http://www.w3.org/Graphics/SVG/1.1/DTD/svg11.dtd">
<svg version="1.1" id="calendar_xs_1_" xmlns="http://www.w3.org/2000/svg" xmlns:xlink="http://www.w3.org/1999/xlink" x="0px"
	 y="0px" width="7px" height="8px" viewBox="0 0 7 8" enable-background="new 0 0 7 8" xml:space="preserve">
<rect width="7" height="2"/>
<g>
	<defs>
		<path id="SVGID_1_" d="M0,3.01V8h7V3.01H0z M2,7H1V6h1V7z M2,5H1V4h1V5z M4,7H3V6h1V7z M4,5H3V4h1V5z M6,5H5V4h1V5z"/>
	</defs>
	<clipPath id="SVGID_2_">
		<use xlink:href="#SVGID_1_"  overflow="visible"/>
	</clipPath>
	<path id="rc:sm_6_" clip-path="url(#SVGID_2_)" d="M6.9,8H0.1C0.04,8,0,7.96,0,7.9V2.1C0,2.04,0.04,2,0.1,2h6.8
		C6.96,2,7,2.04,7,2.1v5.8C7,7.96,6.96,8,6.9,8z"/>
</g>
</svg>
