<?xml version="1.0" encoding="utf-8"?>
<!-- Generator: Adobe Illustrator 17.0.2, SVG Export Plug-In . SVG Version: 6.00 Build 0)  -->
<!DOCTYPE svg PUBLIC "-//W3C//DTD SVG 1.1//EN" "http://www.w3.org/Graphics/SVG/1.1/DTD/svg11.dtd">
<svg version="1.1" id="camera-slr_xs_1_" xmlns="http://www.w3.org/2000/svg" xmlns:xlink="http://www.w3.org/1999/xlink" x="0px"
	 y="0px" width="8px" height="8px" viewBox="0 0 8 8" enable-background="new 0 0 8 8" xml:space="preserve">
<g>
	<defs>
		<path id="SVGID_1_" d="M6,5c0,0.55-0.45,1-1,1S4,5.55,4,5s0.45-1,1-1S6,4.45,6,5z M8,0v8H0V0H8z M2,3.5C2,3.22,1.78,3,1.5,3
			S1,3.22,1,3.5C1,3.78,1.22,4,1.5,4S2,3.78,2,3.5z M7,5c0-1.1-0.9-2-2-2S3,3.9,3,5s0.9,2,2,2S7,6.1,7,5z"/>
	</defs>
	<clipPath id="SVGID_2_">
		<use xlink:href="#SVGID_1_"  overflow="visible"/>
	</clipPath>
	<path id="rc:sm" clip-path="url(#SVGID_2_)" d="M6.96,1.91L6.04,0.09C6.02,0.04,5.96,0,5.9,0H4.1C4.04,0,3.98,0.04,3.96,0.09
		L3.04,1.91C3.02,1.96,2.96,2,2.9,2H1.5C0.67,2,0,2.67,0,3.5v4.4C0,7.96,0.04,8,0.1,8h7.8C7.96,8,8,7.96,8,7.9V2.1
		C8,2.04,7.96,2,7.9,2H7.1C7.04,2,6.98,1.96,6.96,1.91z"/>
</g>
</svg>
