<?xml version="1.0" encoding="utf-8"?>
<!-- Generator: Adobe Illustrator 17.0.2, SVG Export Plug-In . SVG Version: 6.00 Build 0)  -->
<!DOCTYPE svg PUBLIC "-//W3C//DTD SVG 1.1//EN" "http://www.w3.org/Graphics/SVG/1.1/DTD/svg11.dtd">
<svg version="1.1" id="cog_xs_1_" xmlns="http://www.w3.org/2000/svg" xmlns:xlink="http://www.w3.org/1999/xlink" x="0px" y="0px"
	 width="8px" height="8px" viewBox="0 0 8 8" enable-background="new 0 0 8 8" xml:space="preserve">
<path d="M8,4.49v-1l-1.2-0.5C6.77,2.9,6.74,2.81,6.69,2.72l0.48-1.2L6.47,0.81L5.28,1.3C5.19,1.26,5.1,1.22,5,1.19L4.49,0h-1L3,1.18
	C2.9,1.22,2.8,1.26,2.71,1.3L1.52,0.82L0.81,1.53L1.3,2.71c-0.05,0.1-0.09,0.2-0.12,0.3L0,3.51v1L1.18,5C1.21,5.1,1.25,5.2,1.3,5.3
	L0.82,6.48l0.71,0.71L2.71,6.7C2.81,6.75,2.9,6.78,3,6.82L3.51,8h1L5,6.81C5.1,6.78,5.19,6.74,5.28,6.7l1.2,0.48l0.71-0.71L6.7,5.28
	C6.74,5.19,6.77,5.1,6.81,5L8,4.49z M3.99,5.5c-0.83,0-1.5-0.67-1.5-1.5c0-0.83,0.67-1.5,1.5-1.5s1.5,0.67,1.5,1.5
	C5.49,4.83,4.82,5.5,3.99,5.5z"/>
</svg>
