<?xml version="1.0" encoding="utf-8"?>
<!-- Generator: Adobe Illustrator 17.0.2, SVG Export Plug-In . SVG Version: 6.00 Build 0)  -->
<!DOCTYPE svg PUBLIC "-//W3C//DTD SVG 1.1//EN" "http://www.w3.org/Graphics/SVG/1.1/DTD/svg11.dtd">
<svg version="1.1" id="droplet_xs_1_" xmlns="http://www.w3.org/2000/svg" xmlns:xlink="http://www.w3.org/1999/xlink" x="0px"
	 y="0px" width="6px" height="8.21px" viewBox="0 0 6 8.21" enable-background="new 0 0 6 8.21" xml:space="preserve">
<path d="M3.35,0.35L3,0L2.65,0.35C2.54,0.46,0,3.02,0,5.21c0,1.65,1.35,3,3,3s3-1.35,3-3C6,3.02,3.46,0.46,3.35,0.35z M3,7.21
	c-1.1,0-2-0.9-2-2c0-0.28,0.22-0.5,0.5-0.5S2,4.93,2,5.21c0,0.55,0.45,1,1,1c0.28,0,0.5,0.22,0.5,0.5S3.28,7.21,3,7.21z"/>
</svg>
