<?xml version="1.0" encoding="utf-8"?>
<!-- Generator: Adobe Illustrator 17.0.2, SVG Export Plug-In . SVG Version: 6.00 Build 0)  -->
<!DOCTYPE svg PUBLIC "-//W3C//DTD SVG 1.1//EN" "http://www.w3.org/Graphics/SVG/1.1/DTD/svg11.dtd">
<svg version="1.1" id="eye_xs_1_" xmlns="http://www.w3.org/2000/svg" xmlns:xlink="http://www.w3.org/1999/xlink" x="0px" y="0px"
	 width="8px" height="6px" viewBox="0 0 8 6" enable-background="new 0 0 8 6" xml:space="preserve">
<path d="M4.03,0C1.5,0,0,3,0,3s1.5,3,4.03,3C6.5,6,8,3,8,3S6.5,0,4.03,0z M4,5C2.9,5,2,4.1,2,3c0-1.1,0.9-2,2-2s2,0.9,2,2
	C6,4.1,5.1,5,4,5z"/>
<path d="M4.5,3C4.22,3,4,2.78,4,2.5c0-0.2,0.12-0.36,0.28-0.44C4.19,2.03,4.1,2,4,2C3.45,2,3,2.45,3,3c0,0.55,0.45,1,1,1s1-0.45,1-1
	c0-0.1-0.03-0.19-0.06-0.28C4.86,2.88,4.7,3,4.5,3z"/>
</svg>
