<?xml version="1.0" encoding="utf-8"?>
<!-- Generator: Adobe Illustrator 17.0.2, SVG Export Plug-In . SVG Version: 6.00 Build 0)  -->
<!DOCTYPE svg PUBLIC "-//W3C//DTD SVG 1.1//EN" "http://www.w3.org/Graphics/SVG/1.1/DTD/svg11.dtd">
<svg version="1.1" id="globe_xs_1_" xmlns="http://www.w3.org/2000/svg" xmlns:xlink="http://www.w3.org/1999/xlink" x="0px"
	 y="0px" width="8px" height="8px" viewBox="0 0 8 8" enable-background="new 0 0 8 8" xml:space="preserve">
<path d="M5.3,0.75c-0.02,0.1-0.1,0.18-0.2,0.18c-0.12,0-0.22,0.1-0.22,0.22s-0.08,0.3-0.18,0.39L4.6,1.64
	c-0.1,0.1-0.08,0.17,0.04,0.17s0.3,0.08,0.4,0.17l0.09,0.09c0.1,0.1,0.1,0.25,0,0.35L5.05,2.5c-0.1,0.1-0.1,0.26,0,0.35l0.08,0.08
	c0.1,0.1,0.1,0.26,0,0.36L5.04,3.38c-0.1,0.1-0.25,0.26-0.35,0.36L4.63,3.82c-0.09,0.1-0.18,0.29-0.18,0.43L4.43,4.63
	c-0.01,0.14,0.09,0.3,0.21,0.36L5.08,5.2C5.2,5.26,5.41,5.31,5.53,5.32s0.32,0,0.44,0c0.12,0,0.3,0.08,0.39,0.17l0.09,0.08
	c0.1,0.1,0.1,0.25,0,0.35l-0.1,0.1c-0.1,0.1-0.18,0.29-0.18,0.42l0,0.27C6.98,6.07,7.5,5.1,7.5,4C7.5,2.53,6.59,1.27,5.3,0.75z
	 M6.62,2.03c0,0.12,0.08,0.31,0.17,0.4l0.08,0.08c0.1,0.1,0.08,0.18-0.04,0.18c-0.12,0-0.22,0.1-0.22,0.22
	C6.61,3.03,6.51,3.13,6.39,3.13s-0.21-0.1-0.21-0.22S6.07,2.69,5.93,2.69l-0.38,0c-0.14,0-0.17-0.08-0.07-0.17l0.09-0.09
	c0.1-0.09,0.28-0.17,0.4-0.17s0.3-0.08,0.39-0.18l0.09-0.09C6.55,1.89,6.62,1.91,6.62,2.03z"/>
<path d="M2.3,7.04l0.45-0.03C2.89,7.01,3,6.89,3,6.75v-0.5c0-0.14-0.08-0.33-0.18-0.43L2.68,5.68c-0.1-0.1-0.26-0.26-0.35-0.35
	L2.18,5.18C2.08,5.08,1.89,5,1.75,5h-0.5C1.11,5,0.99,4.89,0.98,4.75l-0.03-0.5C0.94,4.11,1.03,4,1.15,4s0.3,0.08,0.39,0.18
	l0.09,0.09C1.72,4.38,1.8,4.36,1.8,4.23s-0.08-0.31-0.17-0.4L1.54,3.75c-0.1-0.1-0.18-0.29-0.17-0.43l0.01-0.39
	c0-0.14,0.1-0.2,0.23-0.14l0.17,0.09c0.12,0.06,0.2,0.01,0.16-0.13L1.88,2.5C1.85,2.37,1.93,2.26,2.07,2.26l0.26,0
	c0.14,0,0.33-0.08,0.42-0.18l0.09-0.1c0.09-0.1,0.07-0.24-0.05-0.31L2.45,1.5C2.33,1.43,2.23,1.28,2.24,1.16S2.36,0.94,2.5,0.93
	l0.38-0.01c0.14,0,0.35,0,0.46,0s0.31,0,0.43,0s0.3-0.08,0.4-0.17l0.09-0.08C4.33,0.6,4.31,0.55,4.25,0.53C4.16,0.52,4.09,0.5,4,0.5
	C2.07,0.5,0.5,2.07,0.5,4C0.5,5.31,1.23,6.45,2.3,7.04z"/>
<g>
	<path d="M4,1c1.65,0,3,1.35,3,3S5.65,7,4,7S1,5.65,1,4S2.35,1,4,1 M4,0C1.79,0,0,1.79,0,4s1.79,4,4,4s4-1.79,4-4S6.21,0,4,0L4,0z"
		/>
</g>
</svg>
