<?xml version="1.0" encoding="utf-8"?>
<!-- Generator: Adobe Illustrator 17.0.2, SVG Export Plug-In . SVG Version: 6.00 Build 0)  -->
<!DOCTYPE svg PUBLIC "-//W3C//DTD SVG 1.1//EN" "http://www.w3.org/Graphics/SVG/1.1/DTD/svg11.dtd">
<svg version="1.1" id="hard-drive_xs_1_" xmlns="http://www.w3.org/2000/svg" xmlns:xlink="http://www.w3.org/1999/xlink" x="0px"
	 y="0px" width="7px" height="8px" viewBox="0 0 7 8" enable-background="new 0 0 7 8" xml:space="preserve">
<g>
	<defs>
		<path id="SVGID_1_" d="M0,3.5v-3V0h7v0.5v3C7,3.78,6.78,4,6.5,4h-6C0.22,4,0,3.78,0,3.5z M7,4.91V8H0V4.91C0.16,4.96,0.32,5,0.5,5
			h6C6.68,5,6.84,4.96,7,4.91z M6,6.5C6,6.22,5.78,6,5.5,6S5,6.22,5,6.5C5,6.78,5.22,7,5.5,7S6,6.78,6,6.5z"/>
	</defs>
	<clipPath id="SVGID_2_">
		<use xlink:href="#SVGID_1_"  overflow="visible"/>
	</clipPath>
	<path id="rc:md_1_" clip-path="url(#SVGID_2_)" d="M6.8,8H0.2C0.09,8,0,7.91,0,7.8V0.2C0,0.09,0.09,0,0.2,0h6.6
		C6.91,0,7,0.09,7,0.2v7.6C7,7.91,6.91,8,6.8,8z"/>
</g>
</svg>
