<?xml version="1.0" encoding="utf-8"?>
<!-- Generator: Adobe Illustrator 17.0.2, SVG Export Plug-In . SVG Version: 6.00 Build 0)  -->
<!DOCTYPE svg PUBLIC "-//W3C//DTD SVG 1.1//EN" "http://www.w3.org/Graphics/SVG/1.1/DTD/svg11.dtd">
<svg version="1.1" id="heart_xs_1_" xmlns="http://www.w3.org/2000/svg" xmlns:xlink="http://www.w3.org/1999/xlink" x="0px"
	 y="0px" width="8px" height="6.83px" viewBox="0 0 8 6.83" enable-background="new 0 0 8 6.83" xml:space="preserve">
<path d="M7.41,0.59C7.05,0.22,6.55,0,6,0S4.95,0.22,4.59,0.59C4.22,0.95,4,1.45,4,2c0-0.55-0.22-1.05-0.59-1.41
	C3.05,0.22,2.55,0,2,0S0.95,0.22,0.59,0.59C0.22,0.95,0,1.45,0,2c0,0.55,0.22,1.05,0.59,1.41L4,6.83l3.41-3.41C7.78,3.05,8,2.55,8,2
	C8,1.45,7.78,0.95,7.41,0.59z"/>
</svg>
