<?xml version="1.0" encoding="utf-8"?>
<!-- Generator: Adobe Illustrator 17.0.2, SVG Export Plug-In . SVG Version: 6.00 Build 0)  -->
<!DOCTYPE svg PUBLIC "-//W3C//DTD SVG 1.1//EN" "http://www.w3.org/Graphics/SVG/1.1/DTD/svg11.dtd">
<svg version="1.1" id="info_xs_1_" xmlns="http://www.w3.org/2000/svg" xmlns:xlink="http://www.w3.org/1999/xlink" x="0px" y="0px"
	 width="4px" height="8px" viewBox="0 0 4 8" enable-background="new 0 0 4 8" xml:space="preserve">
<path d="M2,4c0-0.28-0.22-0.5-0.5-0.5S1,3.72,1,4H0c0-0.83,0.67-1.5,1.5-1.5S3,3.19,3,4c0,0.66-1,2.14-1,2.5C2,6.78,2.22,7,2.5,7
	S3,6.78,3,6.5h1C4,7.33,3.33,8,2.5,8S1,7.36,1,6.5S2,4.28,2,4z"/>
<circle cx="3" cy="1" r="1"/>
</svg>
