<?xml version="1.0" encoding="utf-8"?>
<!-- Generator: Adobe Illustrator 17.0.2, SVG Export Plug-In . SVG Version: 6.00 Build 0)  -->
<!DOCTYPE svg PUBLIC "-//W3C//DTD SVG 1.1//EN" "http://www.w3.org/Graphics/SVG/1.1/DTD/svg11.dtd">
<svg version="1.1" id="key_xs_1_" xmlns="http://www.w3.org/2000/svg" xmlns:xlink="http://www.w3.org/1999/xlink" x="0px" y="0px"
	 width="8px" height="8px" viewBox="0 0 8 8" enable-background="new 0 0 8 8" xml:space="preserve">
<g>
	<g>
		<path d="M5.5,0C4.12,0,3,1.12,3,2.5c0,0.16,0.02,0.31,0.05,0.45L0,6v2h3V6h2V5l0.05-0.05C5.19,4.98,5.34,5,5.5,5
			C6.88,5,8,3.88,8,2.5S6.88,0,5.5,0z M6,3C5.45,3,5,2.55,5,2c0-0.55,0.45-1,1-1s1,0.45,1,1C7,2.55,6.55,3,6,3z"/>
	</g>
</g>
</svg>
