<?xml version="1.0" encoding="utf-8"?>
<!-- Generator: Adobe Illustrator 17.0.2, SVG Export Plug-In . SVG Version: 6.00 Build 0)  -->
<!DOCTYPE svg PUBLIC "-//W3C//DTD SVG 1.1//EN" "http://www.w3.org/Graphics/SVG/1.1/DTD/svg11.dtd">
<svg version="1.1" id="link_xs_1_" xmlns="http://www.w3.org/2000/svg" xmlns:xlink="http://www.w3.org/1999/xlink" x="0px" y="0px"
	 width="8px" height="7px" viewBox="0 0 8 7" enable-background="new 0 0 8 7" xml:space="preserve">
<path fill="none" stroke="#000000" stroke-linecap="round" stroke-linejoin="round" stroke-miterlimit="10" d="M4.94,0.94
	C5.1,0.78,5.29,0.66,5.5,0.59C6.03,0.4,6.64,0.52,7.06,0.94c0.59,0.59,0.59,1.54,0,2.12L5.62,4.5c-0.59,0.59-1.54,0.59-2.12,0"/>
<path fill="none" stroke="#000000" stroke-linecap="round" stroke-linejoin="round" stroke-miterlimit="10" d="M3.06,6.06
	C2.9,6.22,2.71,6.34,2.5,6.41C1.97,6.6,1.36,6.48,0.94,6.06c-0.59-0.59-0.59-1.54,0-2.12l1-1c0.16-0.16,0.8-0.72,1-0.79
	C3.47,1.96,4.08,2.08,4.5,2.5"/>
</svg>
