<?xml version="1.0" encoding="utf-8"?>
<!-- Generator: Adobe Illustrator 17.0.2, SVG Export Plug-In . SVG Version: 6.00 Build 0)  -->
<!DOCTYPE svg PUBLIC "-//W3C//DTD SVG 1.1//EN" "http://www.w3.org/Graphics/SVG/1.1/DTD/svg11.dtd">
<svg version="1.1" id="phone_xs_1_" xmlns="http://www.w3.org/2000/svg" xmlns:xlink="http://www.w3.org/1999/xlink" x="0px"
	 y="0px" width="5px" height="8px" viewBox="0 0 5 8" enable-background="new 0 0 5 8" xml:space="preserve">
<g>
	<defs>
		<path id="SVGID_1_" d="M0,0v8h5V0H0z M2.5,7.5C2.22,7.5,2,7.28,2,7c0-0.28,0.22-0.5,0.5-0.5S3,6.72,3,7C3,7.28,2.78,7.5,2.5,7.5z
			 M4,6H1V1h3V6z"/>
	</defs>
	<clipPath id="SVGID_2_">
		<use xlink:href="#SVGID_1_"  overflow="visible"/>
	</clipPath>
	<path id="rc:md_3_" clip-path="url(#SVGID_2_)" d="M4.8,8H0.2C0.09,8,0,7.91,0,7.8V0.2C0,0.09,0.09,0,0.2,0h4.6
		C4.91,0,5,0.09,5,0.2v7.6C5,7.91,4.91,8,4.8,8z"/>
</g>
</svg>
