<?xml version="1.0" encoding="utf-8"?>
<!-- Generator: Adobe Illustrator 17.0.2, SVG Export Plug-In . SVG Version: 6.00 Build 0)  -->
<!DOCTYPE svg PUBLIC "-//W3C//DTD SVG 1.1//EN" "http://www.w3.org/Graphics/SVG/1.1/DTD/svg11.dtd">
<svg version="1.1" id="pie-chart_xs_1_" xmlns="http://www.w3.org/2000/svg" xmlns:xlink="http://www.w3.org/1999/xlink" x="0px"
	 y="0px" width="8px" height="8px" viewBox="0 0 8 8" enable-background="new 0 0 8 8" xml:space="preserve">
<path d="M1.03,1.03C1.66,0.39,2.53,0,3.5,0c0,0,0,0,0,0C3.67,0,3.84,0.01,4,0.04V4L1.03,1.03z"/>
<path d="M5,1.05v3.41L2.28,7.18C2.88,7.68,3.65,8,4.5,8C6.43,8,8,6.43,8,4.5C8,2.74,6.69,1.29,5,1.05z"/>
<path d="M0.91,2.37C0.36,2.91,0,3.66,0,4.5c0,0.95,0.45,1.81,1.14,2.35l2.13-2.13L0.91,2.37z"/>
</svg>
