<?xml version="1.0" encoding="utf-8"?>
<!-- Generator: Adobe Illustrator 17.0.2, SVG Export Plug-In . SVG Version: 6.00 Build 0)  -->
<!DOCTYPE svg PUBLIC "-//W3C//DTD SVG 1.1//EN" "http://www.w3.org/Graphics/SVG/1.1/DTD/svg11.dtd">
<svg version="1.1" id="reload_xs_1_" xmlns="http://www.w3.org/2000/svg" xmlns:xlink="http://www.w3.org/1999/xlink" x="0px"
	 y="0px" width="8px" height="8px" viewBox="0 0 8 8" enable-background="new 0 0 8 8" xml:space="preserve">
<path fill="none" stroke="#000000" stroke-miterlimit="10" d="M7.22,5.36c-0.18,0.42-0.43,0.8-0.75,1.11
	C6.16,6.79,5.78,7.05,5.36,7.22C4.94,7.4,4.48,7.5,4,7.5S3.06,7.4,2.64,7.22s-0.8-0.43-1.11-0.75C1.21,6.16,0.95,5.78,0.78,5.36
	C0.6,4.94,0.5,4.48,0.5,4s0.1-0.94,0.28-1.36s0.43-0.8,0.75-1.11s0.69-0.57,1.11-0.75S3.52,0.5,4,0.5s0.94,0.1,1.36,0.28
	c0.42,0.18,0.8,0.43,1.11,0.75"/>
<polygon points="8,0 8,3 5,3 "/>
</svg>
