<?xml version="1.0" encoding="utf-8"?>
<!-- Generator: Adobe Illustrator 17.0.2, SVG Export Plug-In . SVG Version: 6.00 Build 0)  -->
<!DOCTYPE svg PUBLIC "-//W3C//DTD SVG 1.1//EN" "http://www.w3.org/Graphics/SVG/1.1/DTD/svg11.dtd">
<svg version="1.1" id="script_xs_1_" xmlns="http://www.w3.org/2000/svg" xmlns:xlink="http://www.w3.org/1999/xlink" x="0px"
	 y="0px" width="8px" height="8px" viewBox="0 0 8 8" enable-background="new 0 0 8 8" xml:space="preserve">
<path d="M3,4V1.5C3,1.22,3.22,1,3.5,1S4,1.22,4,1.5V3h3h1V1c0-0.55-0.45-1-1-1H3C2.45,0,2,0.45,2,1v3.5V6v0.5C2,6.78,1.78,7,1.5,7
	S1,6.78,1,6.5V6V5H0v2c0,0.55,0.45,1,1,1h5c0.55,0,1-0.45,1-1V4H3z"/>
</svg>
