<?xml version="1.0" encoding="utf-8"?>
<!-- Generator: Adobe Illustrator 17.0.2, SVG Export Plug-In . SVG Version: 6.00 Build 0)  -->
<!DOCTYPE svg PUBLIC "-//W3C//DTD SVG 1.1//EN" "http://www.w3.org/Graphics/SVG/1.1/DTD/svg11.dtd">
<svg version="1.1" id="terminal_xs_1_" xmlns="http://www.w3.org/2000/svg" xmlns:xlink="http://www.w3.org/1999/xlink" x="0px"
	 y="0px" width="8px" height="8px" viewBox="0 0 8 8" enable-background="new 0 0 8 8" xml:space="preserve">
<g>
	<defs>
		<path id="SVGID_1_" d="M0,0v8h8V0H0z M1.5,4.21L0.79,3.5l1-1l-1-1L1.5,0.79L3.21,2.5L1.5,4.21z M7,4H4V3h3V4z"/>
	</defs>
	<clipPath id="SVGID_2_">
		<use xlink:href="#SVGID_1_"  overflow="visible"/>
	</clipPath>
	<path id="rc:sm_15_" clip-path="url(#SVGID_2_)" d="M7.9,8H0.1C0.04,8,0,7.96,0,7.9V0.1C0,0.04,0.04,0,0.1,0h7.8
		C7.96,0,8,0.04,8,0.1v7.8C8,7.96,7.96,8,7.9,8z"/>
</g>
</svg>
