<?xml version="1.0" encoding="utf-8"?>
<!-- Generator: Adobe Illustrator 17.0.2, SVG Export Plug-In . SVG Version: 6.00 Build 0)  -->
<!DOCTYPE svg PUBLIC "-//W3C//DTD SVG 1.1//EN" "http://www.w3.org/Graphics/SVG/1.1/DTD/svg11.dtd">
<svg version="1.1" id="text_xs_1_" xmlns="http://www.w3.org/2000/svg" xmlns:xlink="http://www.w3.org/1999/xlink" x="0px" y="0px"
	 width="8px" height="8px" viewBox="0 0 8 8" enable-background="new 0 0 8 8" xml:space="preserve">
<line fill="none" stroke="#000000" stroke-linecap="square" stroke-miterlimit="10" x1="1" y1="0.5" x2="7" y2="0.5"/>
<line fill="none" stroke="#000000" stroke-width="2" stroke-linecap="square" stroke-miterlimit="10" x1="4" y1="1.25" x2="4" y2="7"/>
<line fill="none" stroke="#000000" stroke-linecap="square" stroke-miterlimit="10" x1="2.5" y1="7.5" x2="5.5" y2="7.5"/>
<path d="M5.5,7C5.22,7,5,6.78,5,6.5H4.75v0.75H5.5V7z"/>
<path d="M2.5,7C2.78,7,3,6.78,3,6.5h0.25v0.75H2.5V7z"/>
<polygon points="0.5,0 0.5,0 0.5,2 0,2 0,0 "/>
<path d="M6.5,1c0.55,0,1,0.45,1,1V1H6.5z"/>
<path d="M1.5,1c-0.55,0-1,0.45-1,1V1H1.5z"/>
<rect x="7.5" width="0.5" height="2"/>
</svg>
