<?xml version="1.0" encoding="utf-8"?>
<!-- Generator: Adobe Illustrator 17.0.2, SVG Export Plug-In . SVG Version: 6.00 Build 0)  -->
<!DOCTYPE svg PUBLIC "-//W3C//DTD SVG 1.1//EN" "http://www.w3.org/Graphics/SVG/1.1/DTD/svg11.dtd">
<svg version="1.1" id="thumb-up_xs_1_" xmlns="http://www.w3.org/2000/svg" xmlns:xlink="http://www.w3.org/1999/xlink" x="0px"
	 y="0px" width="7px" height="7px" viewBox="0 0 7 7" enable-background="new 0 0 7 7" xml:space="preserve">
<rect y="3" width="1" height="4"/>
<path d="M5.5,7c0.21,0,0.38-0.13,0.46-0.31C5.96,6.69,7,3.78,7,3.5S6.78,3,6.5,3H2v4H5.5z"/>
<path d="M2,3.8V3c0.28,0,0.52-0.11,0.71-0.29C2.89,2.52,3.87,0.61,4,0.35c0.13-0.26,0.38-0.41,0.65-0.33
	C4.91,0.1,5.06,0.38,4.98,0.65S4.5,2.25,4.5,2.5S4.72,3,5,3l1,0.8H2z"/>
</svg>
