<?xml version="1.0" encoding="utf-8"?>
<!-- Generator: Adobe Illustrator 17.0.2, SVG Export Plug-In . SVG Version: 6.00 Build 0)  -->
<!DOCTYPE svg PUBLIC "-//W3C//DTD SVG 1.1//EN" "http://www.w3.org/Graphics/SVG/1.1/DTD/svg11.dtd">
<svg version="1.1" id="thumb-down_xs_1_" xmlns="http://www.w3.org/2000/svg" xmlns:xlink="http://www.w3.org/1999/xlink" x="0px"
	 y="0px" width="7px" height="7px" viewBox="0 0 7 7" enable-background="new 0 0 7 7" xml:space="preserve">
<rect width="1" height="4"/>
<path d="M5.5,0c0.21,0,0.38,0.13,0.46,0.31C5.96,0.31,7,3.22,7,3.5S6.78,4,6.5,4H2V0H5.5z"/>
<path d="M2,3.2V4c0.28,0,0.52,0.11,0.71,0.29C2.89,4.48,3.87,6.39,4,6.65c0.13,0.26,0.38,0.41,0.65,0.33
	C4.91,6.9,5.06,6.62,4.98,6.35C4.9,6.09,4.5,4.75,4.5,4.5S4.72,4,5,4l1-0.8H2z"/>
</svg>
