<?xml version="1.0" encoding="utf-8"?>
<!-- Generator: Adobe Illustrator 17.0.2, SVG Export Plug-In . SVG Version: 6.00 Build 0)  -->
<!DOCTYPE svg PUBLIC "-//W3C//DTD SVG 1.1//EN" "http://www.w3.org/Graphics/SVG/1.1/DTD/svg11.dtd">
<svg version="1.1" id="timer_xs_1_" xmlns="http://www.w3.org/2000/svg" xmlns:xlink="http://www.w3.org/1999/xlink" x="0px"
	 y="0px" width="7px" height="8px" viewBox="0 0 7 8" enable-background="new 0 0 7 8" xml:space="preserve">
<path fill="none" stroke="#000000" stroke-miterlimit="10" d="M4.55,1.7C4.22,1.58,3.87,1.5,3.5,1.5c-1.66,0-3,1.34-3,3s1.34,3,3,3
	s3-1.34,3-3c0-0.38-0.08-0.73-0.2-1.07"/>
<line fill="none" stroke="#000000" stroke-linecap="square" stroke-miterlimit="10" x1="2.5" y1="0.5" x2="4.5" y2="0.5"/>
<rect x="3" y="0.5" width="1" height="1"/>
<path d="M3.85,4.85c-0.2,0.2-0.51,0.2-0.71,0c-0.2-0.2-0.2-0.51,0-0.71c0.2-0.2,3.85-3,3.85-3S4.05,4.66,3.85,4.85z"/>
</svg>
