<?xml version="1.0" encoding="utf-8"?>
<!-- Generator: Adobe Illustrator 17.0.2, SVG Export Plug-In . SVG Version: 6.00 Build 0)  -->
<!DOCTYPE svg PUBLIC "-//W3C//DTD SVG 1.1//EN" "http://www.w3.org/Graphics/SVG/1.1/DTD/svg11.dtd">
<svg version="1.1" id="trash_xs_1_" xmlns="http://www.w3.org/2000/svg" xmlns:xlink="http://www.w3.org/1999/xlink" x="0px"
	 y="0px" width="7px" height="8px" viewBox="0 0 7 8" enable-background="new 0 0 7 8" xml:space="preserve">
<path d="M6,1H5c0-0.55-0.45-1-1-1H3C2.45,0,2,0.45,2,1H1C0.45,1,0,1.45,0,2h7C7,1.45,6.55,1,6,1z"/>
<g>
	<defs>
		<path id="SVGID_1_" d="M5,3v3.5C5,6.78,4.78,7,4.5,7S4,6.78,4,6.5V3H3v3.5C3,6.78,2.78,7,2.5,7S2,6.78,2,6.5V3H1v5h5V3H5z"/>
	</defs>
	<clipPath id="SVGID_2_">
		<use xlink:href="#SVGID_1_"  overflow="visible"/>
	</clipPath>
	<path id="rc:md" clip-path="url(#SVGID_2_)" d="M1,2.2v5.6C1,7.91,1.09,8,1.2,8h4.6C5.91,8,6,7.91,6,7.8V2.2C6,2.09,5.91,2,5.8,2
		H1.2C1.09,2,1,2.09,1,2.2z"/>
</g>
</svg>
