<?xml version="1.0" encoding="utf-8"?>
<!-- Generator: Adobe Illustrator 17.0.2, SVG Export Plug-In . SVG Version: 6.00 Build 0)  -->
<!DOCTYPE svg PUBLIC "-//W3C//DTD SVG 1.1//EN" "http://www.w3.org/Graphics/SVG/1.1/DTD/svg11.dtd">
<svg version="1.1" id="vertical-align-top_xs_1_" xmlns="http://www.w3.org/2000/svg" xmlns:xlink="http://www.w3.org/1999/xlink"
	 x="0px" y="0px" width="8px" height="7px" viewBox="0 0 8 7" enable-background="new 0 0 8 7" xml:space="preserve">
<path id="rc:sm_12_" d="M1.9,7H0.1C0.04,7,0,6.96,0,6.9V2.1C0,2.04,0.04,2,0.1,2h1.8C1.96,2,2,2.04,2,2.1v4.8C2,6.96,1.96,7,1.9,7z"
	/>
<path id="rc:sm_8_" d="M4.9,5H3.1C3.04,5,3,4.96,3,4.9V2.1C3,2.04,3.04,2,3.1,2h1.8C4.96,2,5,2.04,5,2.1v2.8C5,4.96,4.96,5,4.9,5z"
	/>
<path id="rc:sm_5_" d="M7.9,7H6.1C6.04,7,6,6.96,6,6.9V2.1C6,2.04,6.04,2,6.1,2h1.8C7.96,2,8,2.04,8,2.1v4.8C8,6.96,7.96,7,7.9,7z"
	/>
<line fill="none" stroke="#000000" stroke-miterlimit="10" x1="0" y1="0.5" x2="8" y2="0.5"/>
</svg>
