<?xml version="1.0" encoding="utf-8"?>
<!-- Generator: Adobe Illustrator 17.0.2, SVG Export Plug-In . SVG Version: 6.00 Build 0)  -->
<!DOCTYPE svg PUBLIC "-//W3C//DTD SVG 1.1//EN" "http://www.w3.org/Graphics/SVG/1.1/DTD/svg11.dtd">
<svg version="1.1" id="vertical-align-center_xs_1_"
	 xmlns="http://www.w3.org/2000/svg" xmlns:xlink="http://www.w3.org/1999/xlink" x="0px" y="0px" width="8px" height="7px"
	 viewBox="0 0 8 7" enable-background="new 0 0 8 7" xml:space="preserve">
<line fill="none" stroke="#000000" stroke-miterlimit="10" x1="0" y1="3.5" x2="8" y2="3.5"/>
<g>
	<defs>
		<path id="SVGID_1_" d="M8,0v2H0V0H8z M0,7h8V5H0V7z"/>
	</defs>
	<clipPath id="SVGID_2_">
		<use xlink:href="#SVGID_1_"  overflow="visible"/>
	</clipPath>
	<path id="rc:sm_18_" clip-path="url(#SVGID_2_)" d="M1.9,7H0.1C0.04,7,0,6.96,0,6.9V0.1C0,0.04,0.04,0,0.1,0h1.8
		C1.96,0,2,0.04,2,0.1v6.8C2,6.96,1.96,7,1.9,7z"/>
	<path id="rc:sm_17_" clip-path="url(#SVGID_2_)" d="M4.9,6H3.1C3.04,6,3,5.96,3,5.9V1.1C3,1.04,3.04,1,3.1,1h1.8
		C4.96,1,5,1.04,5,1.1v4.8C5,5.96,4.96,6,4.9,6z"/>
	<path id="rc:sm_16_" clip-path="url(#SVGID_2_)" d="M7.9,7H6.1C6.04,7,6,6.96,6,6.9V0.1C6,0.04,6.04,0,6.1,0h1.8
		C7.96,0,8,0.04,8,0.1v6.8C8,6.96,7.96,7,7.9,7z"/>
</g>
</svg>
