<?xml version="1.0" encoding="utf-8"?>
<!-- Generator: Adobe Illustrator 17.0.2, SVG Export Plug-In . SVG Version: 6.00 Build 0)  -->
<!DOCTYPE svg PUBLIC "-//W3C//DTD SVG 1.1//EN" "http://www.w3.org/Graphics/SVG/1.1/DTD/svg11.dtd">
<svg version="1.1" id="vertical-align-bottom_xs_1_"
	 xmlns="http://www.w3.org/2000/svg" xmlns:xlink="http://www.w3.org/1999/xlink" x="0px" y="0px" width="8px" height="7px"
	 viewBox="0 0 8 7" enable-background="new 0 0 8 7" xml:space="preserve">
<path id="rc:sm_21_" d="M6.1,0l1.8,0C7.96,0,8,0.04,8,0.1v4.8C8,4.96,7.96,5,7.9,5H6.1C6.04,5,6,4.96,6,4.9V0.1C6,0.04,6.04,0,6.1,0
	z"/>
<path id="rc:sm_20_" d="M3.1,2h1.8C4.96,2,5,2.04,5,2.1v2.8C5,4.96,4.96,5,4.9,5H3.1C3.04,5,3,4.96,3,4.9V2.1C3,2.04,3.04,2,3.1,2z"
	/>
<path id="rc:sm_19_" d="M0.1,0l1.8,0C1.96,0,2,0.04,2,0.1v4.8C2,4.96,1.96,5,1.9,5H0.1C0.04,5,0,4.96,0,4.9l0-4.8
	C0,0.04,0.04,0,0.1,0z"/>
<line fill="none" stroke="#000000" stroke-miterlimit="10" x1="8" y1="6.5" x2="0" y2="6.5"/>
</svg>
