<?xml version="1.0" encoding="utf-8"?>
<!-- Generator: Adobe Illustrator 17.0.2, SVG Export Plug-In . SVG Version: 6.00 Build 0)  -->
<!DOCTYPE svg PUBLIC "-//W3C//DTD SVG 1.1//EN" "http://www.w3.org/Graphics/SVG/1.1/DTD/svg11.dtd">
<svg version="1.1" id="volume-high_xs_1_" xmlns="http://www.w3.org/2000/svg" xmlns:xlink="http://www.w3.org/1999/xlink" x="0px"
	 y="0px" width="8px" height="8px" viewBox="0 0 8 8" enable-background="new 0 0 8 8" xml:space="preserve">
<path fill="none" stroke="#000000" d="M5,1.5c0.21,0,0.42,0.03,0.62,0.08C6.7,1.85,7.5,2.83,7.5,4c0,1.17-0.8,2.15-1.88,2.42
	C5.42,6.47,5.21,6.5,5,6.5"/>
<path fill="none" stroke="#000000" d="M5,3.5c0.04,0,0.08,0.01,0.12,0.02C5.34,3.57,5.5,3.77,5.5,4c0,0.23-0.16,0.43-0.38,0.49
	C5.08,4.5,5.04,4.5,5,4.5"/>
<rect x="0" y="2" width="3" height="4"/>
<polygon points="3.33,8 4,8 4,0 3.33,0 2,2 2,6 "/>
</svg>
