<?xml version="1.0" encoding="utf-8"?>
<!-- Generator: Adobe Illustrator 17.0.2, SVG Export Plug-In . SVG Version: 6.00 Build 0)  -->
<!DOCTYPE svg PUBLIC "-//W3C//DTD SVG 1.1//EN" "http://www.w3.org/Graphics/SVG/1.1/DTD/svg11.dtd">
<svg version="1.1" id="warning_xs_1_" xmlns="http://www.w3.org/2000/svg" xmlns:xlink="http://www.w3.org/1999/xlink" x="0px"
	 y="0px" width="7px" height="8px" viewBox="0 0 7 8" enable-background="new 0 0 7 8" xml:space="preserve">
<g>
	<defs>
		<path id="SVGID_1_" d="M0,0v8h7V0H0z M4,7H3V6h1V7z M4,5H3V3h1V5z"/>
	</defs>
	<clipPath id="SVGID_2_">
		<use xlink:href="#SVGID_1_"  overflow="visible"/>
	</clipPath>
	<path id="rc:sm_3_" clip-path="url(#SVGID_2_)" d="M0,7.9V7.1c0-0.06,0.02-0.14,0.04-0.19l2.92-6.82C2.98,0.04,3.04,0,3.1,0h0.8
		c0.06,0,0.12,0.04,0.14,0.09l2.92,6.81C6.98,6.96,7,7.04,7,7.1v0.8C7,7.96,6.96,8,6.9,8H0.1C0.04,8,0,7.96,0,7.9z"/>
</g>
</svg>
