<?xml version="1.0" encoding="utf-8"?>
<!-- Generator: Adobe Illustrator 17.0.2, SVG Export Plug-In . SVG Version: 6.00 Build 0)  -->
<!DOCTYPE svg PUBLIC "-//W3C//DTD SVG 1.1//EN" "http://www.w3.org/Graphics/SVG/1.1/DTD/svg11.dtd">
<svg version="1.1" id="wrench_xs_1_" xmlns="http://www.w3.org/2000/svg" xmlns:xlink="http://www.w3.org/1999/xlink" x="0px"
	 y="0px" width="8px" height="8px" viewBox="0 0 8 8" enable-background="new 0 0 8 8" xml:space="preserve">
<path d="M7,3H5V1l0.95-0.95C5.81,0.02,5.66,0,5.5,0C4.12,0,3,1.12,3,2.5c0,0.32,0.07,0.63,0.18,0.91L0.29,6.29
	c-0.39,0.39-0.39,1.02,0,1.41C0.49,7.9,0.74,8,1,8s0.51-0.1,0.71-0.29l2.88-2.88C4.87,4.93,5.18,5,5.5,5C6.88,5,8,3.88,8,2.5
	c0-0.16-0.02-0.31-0.05-0.45L7,3z M1,7.5C0.72,7.5,0.5,7.28,0.5,7c0-0.28,0.22-0.5,0.5-0.5S1.5,6.72,1.5,7C1.5,7.28,1.28,7.5,1,7.5z
	"/>
</svg>
